<svg width="16" height="16" viewBox="0 0 16 16" fill="none" xmlns="http://www.w3.org/2000/svg">
<g clip-path="url(#clip0_1_2197)">
<path d="M0 12.6641C0.00105857 13.5478 0.352588 14.395 0.97748 15.0199C1.60237 15.6448 2.4496 15.9963 3.33333 15.9974H12.6667C13.5504 15.9963 14.3976 15.6448 15.0225 15.0199C15.6474 14.395 15.9989 13.5478 16 12.6641V6.66406H0V12.6641ZM11.3333 9.66406C11.5311 9.66406 11.7245 9.72271 11.8889 9.83259C12.0534 9.94247 12.1815 10.0987 12.2572 10.2814C12.3329 10.4641 12.3527 10.6652 12.3141 10.8592C12.2755 11.0531 12.1803 11.2313 12.0404 11.3712C11.9006 11.511 11.7224 11.6063 11.5284 11.6448C11.3344 11.6834 11.1334 11.6636 10.9507 11.5879C10.7679 11.5123 10.6117 11.3841 10.5019 11.2196C10.392 11.0552 10.3333 10.8618 10.3333 10.6641C10.3333 10.3988 10.4387 10.1445 10.6262 9.95696C10.8138 9.76942 11.0681 9.66406 11.3333 9.66406ZM8 9.66406C8.19778 9.66406 8.39112 9.72271 8.55557 9.83259C8.72002 9.94247 8.84819 10.0987 8.92388 10.2814C8.99957 10.4641 9.01937 10.6652 8.98079 10.8592C8.9422 11.0531 8.84696 11.2313 8.70711 11.3712C8.56726 11.511 8.38907 11.6063 8.19509 11.6448C8.00111 11.6834 7.80004 11.6636 7.61732 11.5879C7.43459 11.5123 7.27841 11.3841 7.16853 11.2196C7.05865 11.0552 7 10.8618 7 10.6641C7 10.3988 7.10536 10.1445 7.29289 9.95696C7.48043 9.76942 7.73478 9.66406 8 9.66406ZM4.66667 9.66406C4.86445 9.66406 5.05779 9.72271 5.22224 9.83259C5.38669 9.94247 5.51486 10.0987 5.59055 10.2814C5.66623 10.4641 5.68604 10.6652 5.64745 10.8592C5.60887 11.0531 5.51363 11.2313 5.37377 11.3712C5.23392 11.511 5.05574 11.6063 4.86176 11.6448C4.66778 11.6834 4.46671 11.6636 4.28398 11.5879C4.10126 11.5123 3.94508 11.3841 3.8352 11.2196C3.72532 11.0552 3.66667 10.8618 3.66667 10.6641C3.66667 10.3988 3.77202 10.1445 3.95956 9.95696C4.1471 9.76942 4.40145 9.66406 4.66667 9.66406Z" fill="#47A896"/>
<path d="M12.6667 1.33333H12V0.666667C12 0.489856 11.9298 0.320286 11.8047 0.195262C11.6797 0.0702379 11.5101 0 11.3333 0C11.1565 0 10.987 0.0702379 10.8619 0.195262C10.7369 0.320286 10.6667 0.489856 10.6667 0.666667V1.33333H5.33333V0.666667C5.33333 0.489856 5.2631 0.320286 5.13807 0.195262C5.01305 0.0702379 4.84348 0 4.66667 0C4.48986 0 4.32029 0.0702379 4.19526 0.195262C4.07024 0.320286 4 0.489856 4 0.666667V1.33333H3.33333C2.4496 1.33439 1.60237 1.68592 0.97748 2.31081C0.352588 2.9357 0.00105857 3.78294 0 4.66667L0 5.33333H16V4.66667C15.9989 3.78294 15.6474 2.9357 15.0225 2.31081C14.3976 1.68592 13.5504 1.33439 12.6667 1.33333Z" fill="#47A896"/>
</g>
<defs>
<clipPath id="clip0_1_2197">
<rect width="16" height="16" fill="white"/>
</clipPath>
</defs>
</svg>
