<svg width="32" height="32" viewBox="0 0 32 32" fill="none" xmlns="http://www.w3.org/2000/svg">
<g clip-path="url(#clip0_1_6120)">
<path d="M10.6665 14.2645C10.6665 16.2645 13.6785 19.2405 15.9998 21.0138C18.3212 19.2405 21.3332 16.2671 21.3332 14.2645C21.4345 11.5898 17.4492 11.0645 17.3332 13.9365V14.6645C17.3332 15.0181 17.1927 15.3572 16.9426 15.6073C16.6926 15.8573 16.3535 15.9978 15.9998 15.9978C15.6462 15.9978 15.3071 15.8573 15.057 15.6073C14.807 15.3572 14.6665 15.0181 14.6665 14.6645V13.9365C14.5505 11.0645 10.5652 11.5898 10.6665 14.2645ZM-0.000167847 16.4511V25.3311C0.00230026 27.0985 0.705471 28.7927 1.95518 30.0424C3.20489 31.2921 4.89915 31.9953 6.6665 31.9978H14.5545C23.8905 31.9978 31.3732 25.6085 31.9612 17.1378C32.1247 14.8521 31.7953 12.558 30.9954 10.4106C30.1954 8.26329 28.9436 6.31282 27.3245 4.69122C25.7054 3.06961 23.7569 1.8147 21.6108 1.01141C19.4647 0.208112 17.1711 -0.124827 14.8852 0.0351182C10.7899 0.386635 6.97912 2.27438 4.21807 5.31935C1.45703 8.36431 -0.0499039 12.341 -0.000167847 16.4511ZM7.99983 14.2645C7.97275 13.3264 8.22381 12.4012 8.7214 11.6055C9.21899 10.8098 9.94087 10.1791 10.7962 9.79281C11.6514 9.40651 12.6019 9.28187 13.5279 9.43461C14.4538 9.58734 15.3139 10.0106 15.9998 10.6511C16.6858 10.0106 17.5458 9.58734 18.4718 9.43461C19.3978 9.28187 20.3482 9.40651 21.2035 9.79281C22.0588 10.1791 22.7807 10.8098 23.2783 11.6055C23.7759 12.4012 24.0269 13.3264 23.9998 14.2645C23.9998 18.6058 17.5012 23.2458 16.7598 23.7605C16.5366 23.9153 16.2715 23.9983 15.9998 23.9983C15.7282 23.9983 15.463 23.9153 15.2398 23.7605C14.4985 23.2458 7.99983 18.6058 7.99983 14.2645Z" fill="white"/>
</g>
<defs>
<clipPath id="clip0_1_6120">
<rect width="32" height="32" fill="white" transform="matrix(-1 0 0 1 32 0)"/>
</clipPath>
</defs>
</svg>
