<svg width="25" height="24" viewBox="0 0 25 24" fill="none" xmlns="http://www.w3.org/2000/svg">
<path d="M16.5017 2.75C16.5017 4.913 13.6817 7.601 12.2767 8.728C12.0569 8.90426 11.7835 9.00031 11.5017 9.00031C11.2199 9.00031 10.9466 8.90426 10.7267 8.728C9.32171 7.6 6.50171 4.913 6.50171 2.75C6.47017 2.05422 6.71549 1.37427 7.184 0.858905C7.65252 0.343541 8.30608 0.0347185 9.00171 0C9.69734 0.0347185 10.3509 0.343541 10.8194 0.858905C11.2879 1.37427 11.5332 2.05422 11.5017 2.75C11.4702 2.05422 11.7155 1.37427 12.184 0.858905C12.6525 0.343541 13.3061 0.0347185 14.0017 0C14.6973 0.0347185 15.3509 0.343541 15.8194 0.858905C16.2879 1.37427 16.5332 2.05422 16.5017 2.75ZM23.8397 12.35L16.1397 20.759C15.2022 21.7812 14.0624 22.5972 12.7925 23.1552C11.5227 23.7131 10.1507 24.0008 8.76371 24H4.50171C3.44084 24 2.42343 23.5786 1.67328 22.8284C0.923136 22.0783 0.501709 21.0609 0.501709 20V15C0.501709 13.9391 0.923136 12.9217 1.67328 12.1716C2.42343 11.4214 3.44084 11 4.50171 11H12.2887C12.6193 11.0006 12.9455 11.0752 13.2435 11.2181C13.5416 11.361 13.8039 11.5688 14.0114 11.8262C14.2188 12.0835 14.3661 12.384 14.4424 12.7056C14.5188 13.0272 14.5223 13.3619 14.4527 13.685C14.3444 14.137 14.1006 14.5452 13.7539 14.8547C13.4071 15.1643 12.9741 15.3605 12.5127 15.417L8.34971 16C8.08733 16.0376 7.85063 16.1779 7.69162 16.39C7.53261 16.6021 7.4643 16.8686 7.50171 17.131C7.53911 17.3936 7.67928 17.6305 7.89138 17.7897C8.10348 17.949 8.37014 18.0174 8.63271 17.98L12.8847 17.38C13.8862 17.2325 14.8017 16.7311 15.4652 15.9666C16.1288 15.2022 16.4965 14.2253 16.5017 13.213C16.4968 12.999 16.4751 12.7856 16.4367 12.575L19.9787 8.838C20.4458 8.33224 21.094 8.03185 21.7818 8.00244C22.4696 7.97302 23.1412 8.21697 23.6497 8.681C24.1557 9.14472 24.4592 9.7887 24.4947 10.4741C24.5302 11.1595 24.295 11.8314 23.8397 12.345V12.35Z" fill="#47A896"/>
</svg>
