<svg width="25" height="24" viewBox="0 0 25 24" fill="none" xmlns="http://www.w3.org/2000/svg">
<path d="M16.502 2.75C16.502 4.913 13.682 7.601 12.277 8.728C12.0571 8.90426 11.7837 9.00031 11.502 9.00031C11.2202 9.00031 10.9468 8.90426 10.727 8.728C9.32195 7.6 6.50195 4.913 6.50195 2.75C6.47041 2.05422 6.71574 1.37427 7.18425 0.858905C7.65276 0.343541 8.30632 0.0347185 9.00195 0C9.69758 0.0347185 10.3511 0.343541 10.8197 0.858905C11.2882 1.37427 11.5335 2.05422 11.502 2.75C11.4704 2.05422 11.7157 1.37427 12.1842 0.858905C12.6528 0.343541 13.3063 0.0347185 14.002 0C14.6976 0.0347185 15.3511 0.343541 15.8197 0.858905C16.2882 1.37427 16.5335 2.05422 16.502 2.75ZM23.84 12.35L16.14 20.759C15.2025 21.7812 14.0626 22.5972 12.7928 23.1552C11.523 23.7131 10.151 24.0008 8.76395 24H4.50195C3.44109 24 2.42367 23.5786 1.67353 22.8284C0.923381 22.0783 0.501953 21.0609 0.501953 20V15C0.501953 13.9391 0.923381 12.9217 1.67353 12.1716C2.42367 11.4214 3.44109 11 4.50195 11H12.289C12.6195 11.0006 12.9457 11.0752 13.2438 11.2181C13.5418 11.361 13.8042 11.5688 14.0116 11.8262C14.219 12.0835 14.3663 12.384 14.4427 12.7056C14.519 13.0272 14.5226 13.3619 14.453 13.685C14.3447 14.137 14.1008 14.5452 13.7541 14.8547C13.4074 15.1643 12.9743 15.3605 12.513 15.417L8.34995 16C8.08757 16.0376 7.85087 16.1779 7.69186 16.39C7.53285 16.6021 7.46454 16.8686 7.50195 17.131C7.53935 17.3936 7.67952 17.6305 7.89162 17.7897C8.10372 17.949 8.37039 18.0174 8.63295 17.98L12.885 17.38C13.8864 17.2325 14.8019 16.7311 15.4655 15.9666C16.129 15.2022 16.4967 14.2253 16.502 13.213C16.4971 12.999 16.4753 12.7856 16.437 12.575L19.979 8.838C20.446 8.33224 21.0943 8.03185 21.7821 8.00244C22.4699 7.97302 23.1414 8.21697 23.65 8.681C24.1559 9.14472 24.4594 9.7887 24.4949 10.4741C24.5305 11.1595 24.2953 11.8314 23.84 12.345V12.35Z" fill="white"/>
</svg>
