<svg width="24" height="24" viewBox="0 0 24 24" fill="none" xmlns="http://www.w3.org/2000/svg">
<rect width="24" height="24" rx="12" fill="white"/>
<g clip-path="url(#clip0_49_323)">
<path d="M20 12.0471C20 16.0398 17.0707 19.3498 13.2467 19.9505V14.3751H15.106L15.46 12.0685H13.2467V10.5718C13.2467 9.94045 13.556 9.32579 14.5467 9.32579H15.5527V7.36179C15.5527 7.36179 14.6393 7.20579 13.7667 7.20579C11.944 7.20579 10.7533 8.31045 10.7533 10.3098V12.0678H8.72733V14.3745H10.7533V19.9498C6.93 19.3485 4 16.0391 4 12.0471C4 7.62912 7.582 4.04712 12 4.04712C16.418 4.04712 20 7.62845 20 12.0471Z" fill="#406760"/>
</g>
<defs>
<clipPath id="clip0_49_323">
<rect width="16" height="16" fill="white" transform="translate(4 4)"/>
</clipPath>
</defs>
</svg>
