<svg width="32" height="32" viewBox="0 0 32 32" fill="none" xmlns="http://www.w3.org/2000/svg">
<g clip-path="url(#clip0_1_5920)">
<path d="M32.001 16C32.001 24.8267 24.8276 32 16.001 32C7.17431 32 0.000976562 24.8267 0.000976562 16C0.000976562 7.17333 7.17431 0 16.001 0C16.9743 0 17.961 0.0933333 18.9076 0.266667C19.6276 0.4 20.1076 1.09333 19.9743 1.81333C19.841 2.53333 19.1476 3.01333 18.4276 2.88C17.641 2.73333 16.8143 2.66667 16.001 2.66667C8.65431 2.66667 2.66764 8.65333 2.66764 16C2.66764 23.3467 8.65431 29.3333 16.001 29.3333C23.3476 29.3333 29.3343 23.3467 29.3343 16C29.3343 15.1867 29.2543 14.3733 29.121 13.5733C28.9876 12.8533 29.4676 12.16 30.1876 12.0267C30.921 11.8933 31.601 12.3733 31.7343 13.0933C31.9076 14.04 32.001 15.0267 32.001 16ZM17.1476 8.08C17.881 8.18667 18.5476 7.68 18.6543 6.94667C18.761 6.21333 18.2543 5.54667 17.521 5.44C17.0143 5.37333 16.5076 5.33333 16.001 5.33333C10.121 5.33333 5.33431 10.12 5.33431 16C5.33431 21.88 10.121 26.6667 16.001 26.6667C21.881 26.6667 26.6676 21.88 26.6676 16C26.6676 15.4933 26.6276 14.9867 26.561 14.48C26.4543 13.7467 25.7876 13.24 25.0543 13.3467C24.321 13.4533 23.8143 14.12 23.921 14.8533C23.9743 15.2267 24.001 15.6133 24.001 16C24.001 20.4133 20.4143 24 16.001 24C11.5876 24 8.00098 20.4133 8.00098 16C8.00098 11.5867 11.5876 8 16.001 8C16.3876 8 16.7743 8.02667 17.1476 8.08ZM14.2276 14.0133C14.7743 13.52 14.8276 12.68 14.3343 12.1333C13.841 11.5867 13.001 11.5333 12.4543 12.0267C11.321 13.04 10.681 14.4933 10.681 16C10.681 18.9467 13.0676 21.3333 16.0143 21.3333C17.5343 21.3333 18.9743 20.68 19.9876 19.56C20.481 19.0133 20.4276 18.1733 19.881 17.68C19.3343 17.1867 18.4943 17.24 18.001 17.7867C17.4943 18.3467 16.7743 18.68 16.0143 18.68C14.5476 18.68 13.3476 17.48 13.3476 16.0133C13.3476 15.2533 13.6676 14.5333 14.241 14.0267L14.2276 14.0133ZM16.401 13.72C15.881 14.24 15.881 15.08 16.401 15.6C16.6676 15.8667 17.001 15.9867 17.3476 15.9867C17.6943 15.9867 18.0276 15.8533 18.2943 15.6L24.5743 9.32H28.0276C28.3876 9.32 28.721 9.17333 28.9743 8.93333L31.641 6.26667C32.0276 5.88 32.1343 5.30667 31.9343 4.81333C31.7343 4.32 31.241 3.98667 30.7076 3.98667H28.041V1.33333C28.041 0.8 27.721 0.306667 27.2143 0.106667C26.7076 -0.106667 26.1476 0.0133334 25.761 0.4L23.0943 3.06667C22.841 3.32 22.7076 3.65333 22.7076 4.01333V7.46667L16.4276 13.7467L16.401 13.72Z" fill="white"/>
</g>
<defs>
<clipPath id="clip0_1_5920">
<rect width="32" height="32" fill="white" transform="translate(0.000976562)"/>
</clipPath>
</defs>
</svg>
