<svg width="44" height="44" viewBox="0 0 44 44" fill="none" xmlns="http://www.w3.org/2000/svg">
<g clip-path="url(#clip0_1_5845)">
<path d="M11.9166 3.51566C13.981 3.54777 16.0004 4.12405 17.7709 5.18632C19.5413 6.24859 21.0001 7.75921 21.9999 9.56566C22.9997 7.75921 24.4585 6.24859 26.229 5.18632C27.9994 4.12405 30.0188 3.54777 32.0832 3.51566C35.3742 3.65864 38.4748 5.09829 40.7076 7.52008C42.9405 9.94187 44.1241 13.149 43.9999 16.4407C43.9999 24.7768 35.2256 33.8812 27.8666 40.054C26.2235 41.4347 24.1461 42.1917 21.9999 42.1917C19.8537 42.1917 17.7763 41.4347 16.1333 40.054C8.77425 33.8812 -8.01086e-05 24.7768 -8.01086e-05 16.4407C-0.12429 13.149 1.05933 9.94187 3.29219 7.52008C5.52504 5.09829 8.62564 3.65864 11.9166 3.51566Z" fill="#47A896"/>
</g>
<defs>
<clipPath id="clip0_1_5845">
<rect width="44" height="44" fill="white" transform="matrix(-1 0 0 1 44 3.05176e-05)"/>
</clipPath>
</defs>
</svg>
