<svg width="24" height="24" viewBox="0 0 24 24" fill="none" xmlns="http://www.w3.org/2000/svg">
<g clip-path="url(#clip0_1_6051)">
<path d="M16.731 17.8312C17.317 18.4172 17.317 19.3672 16.731 19.9522C16.145 20.5382 15.195 20.5382 14.61 19.9522L9.97595 15.3182C9.58495 14.9272 8.95195 14.9272 8.56195 15.3182C8.17095 15.7092 8.17095 16.3422 8.56195 16.7322L12.773 20.9432C13.359 21.5292 13.359 22.4792 12.773 23.0642C12.187 23.6502 11.237 23.6502 10.652 23.0642L5.97895 18.3912C3.02295 15.5072 0.00195312 11.6622 0.00195312 8.00024C0.00195312 4.14024 2.91795 1.00024 6.50195 1.00024C8.27495 1.00024 9.63295 1.66224 10.667 2.39724L7.02795 6.00524C6.36595 6.66624 6.00195 7.54624 6.00195 8.48124C6.00195 9.41624 6.36595 10.2952 7.02595 10.9552C7.68695 11.6172 8.56595 11.9812 9.50195 11.9812C9.92795 11.9812 10.339 11.8962 10.727 11.7522L16.732 17.8322L16.731 17.8312ZM14.423 8.52524L12.331 10.6032L18.441 16.6212C19.027 17.2072 19.977 17.2072 20.562 16.6212C21.458 15.7252 20.691 14.7332 20.691 14.7332L14.423 8.52524ZM17.459 1.05824C15.825 1.06824 14.273 1.77824 13.077 2.89224L8.43995 7.49824C7.85395 8.08424 7.85395 9.03424 8.43995 9.61924C9.02595 10.2052 9.97595 10.2052 10.561 9.61924L13.058 7.13924C13.838 6.36424 15.096 6.36424 15.877 7.13924L22.201 13.4172C23.392 11.4952 24 9.69524 24 8.05824C24 4.19824 21.042 1.05824 17.458 1.05824H17.459Z" fill="white"/>
</g>
<defs>
<clipPath id="clip0_1_6051">
<rect width="24" height="24" fill="white" transform="translate(0.00195312 0.000244141)"/>
</clipPath>
</defs>
</svg>
