<svg width="32" height="32" viewBox="0 0 32 32" fill="none" xmlns="http://www.w3.org/2000/svg">
<g clip-path="url(#clip0_1_5983)">
<path d="M22.3803 3.30049L24.027 0.620486C24.411 -0.00884716 25.2323 -0.203514 25.8603 0.183153C26.4883 0.568486 26.6843 1.38849 26.2976 2.01649L24.651 4.69649C24.4003 5.10715 23.9616 5.33249 23.5136 5.33249C23.275 5.33249 23.035 5.26849 22.8176 5.13515C22.1896 4.74982 21.9936 3.92849 22.3803 3.30049ZM7.23629 4.69515C7.48696 5.10582 7.92696 5.33249 8.37496 5.33249C8.61229 5.33249 8.85229 5.26849 9.06962 5.13649C9.69762 4.75115 9.89496 3.93115 9.50962 3.30315L7.86562 0.62182C7.48029 -0.00618044 6.65896 -0.20218 6.03229 0.18182C5.40429 0.567153 5.20696 1.38715 5.59229 2.01515L7.23629 4.69515ZM4.32162 7.63915L1.92429 6.49115C1.26296 6.16982 0.461623 6.45249 0.146956 7.11782C-0.171711 7.78182 0.109623 8.57782 0.773623 8.89515L3.17096 10.0432C3.35629 10.1325 3.55229 10.1752 3.74562 10.1752C4.24296 10.1752 4.72029 9.89649 4.94829 9.41782C5.26696 8.75382 4.98562 7.95649 4.32162 7.63915ZM15.819 5.33649C8.46696 5.45782 2.64029 13.4258 6.63229 21.1005C7.23896 22.2658 8.13896 23.2418 9.10562 24.1312C9.47229 24.4685 9.75629 24.8858 9.99896 25.3338H14.667V18.4218C13.119 17.8698 12.0003 16.4032 12.0003 14.6672C12.0003 13.9298 12.5963 13.3338 13.3336 13.3338C14.071 13.3338 14.667 13.9298 14.667 14.6672C14.667 15.4045 15.2643 16.0005 16.0003 16.0005C16.7363 16.0005 17.3336 15.4032 17.3336 14.6672C17.3336 13.9312 17.9296 13.3338 18.667 13.3338C19.4043 13.3338 20.0003 13.9298 20.0003 14.6672C20.0003 16.4032 18.8816 17.8698 17.3336 18.4218V25.3338H21.9576C22.2616 24.8125 22.6536 24.3205 23.167 23.8925C24.0456 23.1592 24.8723 22.3418 25.3803 21.3165C27.6963 16.6325 26.7776 11.6378 23.479 8.39515C21.4243 6.37382 18.703 5.29249 15.819 5.33649ZM10.6563 28.3725C10.5496 30.3272 12.0136 32.0018 13.971 32.0018H17.999C19.8403 32.0018 21.3323 30.5098 21.3323 28.6685V28.0018H10.6416C10.6416 28.1272 10.6643 28.2445 10.6563 28.3725ZM31.8843 7.06849C31.5803 6.39782 30.7923 6.09515 30.1216 6.40182L27.5456 7.56449C26.8736 7.86715 26.575 8.65649 26.879 9.32715C27.1016 9.82049 27.5856 10.1125 28.095 10.1125C28.2776 10.1125 28.4643 10.0752 28.6416 9.99382L31.2176 8.83115C31.8896 8.52849 32.1883 7.73915 31.8843 7.06849Z" fill="white"/>
</g>
<defs>
<clipPath id="clip0_1_5983">
<rect width="32" height="32" fill="white"/>
</clipPath>
</defs>
</svg>
