<svg width="24" height="24" viewBox="0 0 24 24" fill="none" xmlns="http://www.w3.org/2000/svg">
<rect width="24" height="24" rx="12" fill="white"/>
<path d="M11.9997 9.35156C10.5269 9.35156 9.33301 10.5455 9.33301 12.0182C9.33301 13.491 10.5269 14.6849 11.9997 14.6849C13.4724 14.6849 14.6663 13.491 14.6663 12.0182C14.6663 10.5455 13.4724 9.35156 11.9997 9.35156Z" fill="#406760"/>
<path fill-rule="evenodd" clip-rule="evenodd" d="M8.8 4.01953C6.14903 4.01953 4 6.16857 4 8.81953V15.2195C4 17.8705 6.14903 20.0195 8.8 20.0195H15.2C17.851 20.0195 20 17.8705 20 15.2195V8.81953C20 6.16857 17.851 4.01953 15.2 4.01953H8.8ZM8.26667 12.0195C8.26667 9.95766 9.93813 8.2862 12 8.2862C14.0619 8.2862 15.7333 9.95766 15.7333 12.0195C15.7333 14.0814 14.0619 15.7529 12 15.7529C9.93813 15.7529 8.26667 14.0814 8.26667 12.0195ZM15.7333 8.2862H16.8V7.21953H15.7333V8.2862Z" fill="#406760"/>
</svg>
