<svg width="14" height="16" viewBox="0 0 14 16" fill="none" xmlns="http://www.w3.org/2000/svg">
<path d="M7.34638 0C5.58234 0.0019071 3.8911 0.691325 2.64367 1.91701C1.39625 3.1427 0.6945 4.80457 0.692383 6.53803C0.692383 8.22168 2.01905 10.8565 4.63572 14.3693C4.94722 14.7886 5.35509 15.1298 5.82612 15.365C6.29715 15.6002 6.81803 15.7228 7.34638 15.7228C7.87473 15.7228 8.39562 15.6002 8.86665 15.365C9.33768 15.1298 9.74554 14.7886 10.0571 14.3693C12.6737 10.8565 14.0004 8.22168 14.0004 6.53803C13.9983 4.80457 13.2965 3.1427 12.0491 1.91701C10.8017 0.691325 9.11042 0.0019071 7.34638 0ZM7.34638 9.14408C6.81897 9.14408 6.30339 8.99039 5.86486 8.70245C5.42633 8.41451 5.08454 8.00525 4.8827 7.52643C4.68087 7.0476 4.62806 6.52071 4.73096 6.0124C4.83385 5.50408 5.08783 5.03716 5.46077 4.67068C5.83371 4.3042 6.30886 4.05463 6.82614 3.95352C7.34343 3.85241 7.8796 3.9043 8.36687 4.10264C8.85414 4.30097 9.27062 4.63684 9.56364 5.06778C9.85665 5.49871 10.0131 6.00534 10.0131 6.52362C10.0131 7.21861 9.7321 7.88513 9.232 8.37656C8.7319 8.86799 8.05363 9.14408 7.34638 9.14408Z" fill="#47A896"/>
</svg>
