<svg width="40" height="40" viewBox="0 0 40 40" fill="none" xmlns="http://www.w3.org/2000/svg">
<rect width="40" height="40" rx="20" fill="white"/>
<path d="M14 17.3313V22.6713C14 25.9913 16.35 27.3413 19.22 25.6913L20.5 24.9513C20.6526 24.8632 20.7792 24.7364 20.867 24.5836C20.9548 24.4308 21.0007 24.2576 21 24.0813V15.9213C21.0007 15.7451 20.9548 15.5719 20.867 15.4191C20.7792 15.2663 20.6526 15.1394 20.5 15.0513L19.22 14.3073C16.35 12.6613 14 14.0073 14 17.3313Z" fill="#47A896"/>
<path d="M22 16.7883V23.2183C22.0006 23.3058 22.0241 23.3916 22.0682 23.4672C22.1123 23.5428 22.1754 23.6055 22.2513 23.649C22.3273 23.6926 22.4133 23.7154 22.5008 23.7153C22.5883 23.7151 22.6743 23.692 22.75 23.6483L23.85 23.0083C26.72 21.3583 26.72 18.6383 23.85 16.9883L22.75 16.3483C22.6735 16.3041 22.5867 16.281 22.4983 16.2813C22.4099 16.2816 22.3232 16.3053 22.247 16.35C22.1708 16.3947 22.1078 16.4588 22.0644 16.5358C22.021 16.6128 21.9988 16.6999 22 16.7883Z" fill="#47A896"/>
</svg>
