<svg width="60" height="60" viewBox="0 0 60 60" fill="none" xmlns="http://www.w3.org/2000/svg">
<g filter="url(#filter0_d_1_7141)">
<rect width="32" height="32" rx="16" transform="matrix(-1 0 0 1 49 11)" fill="#47A896"/>
<g clip-path="url(#clip0_1_7141)">
<path fill-rule="evenodd" clip-rule="evenodd" d="M33 17C27.4775 17 23 21.4775 23 27C23 32.5225 27.4775 37 33 37C38.5225 37 43 32.5225 43 27C43 21.4775 38.5225 17 33 17ZM37.635 23.8008C37.485 25.3817 36.8333 29.2192 36.5025 30.99C36.3625 31.74 36.0858 31.9908 35.8192 32.015C35.2383 32.0683 34.7975 31.6308 34.235 31.2625C33.355 30.6858 32.8575 30.3267 32.0033 29.7633C31.0158 29.1125 31.6558 28.755 32.2183 28.1708C32.3658 28.0175 34.9242 25.69 34.9742 25.4792C34.98 25.4525 34.9867 25.3542 34.9275 25.3025C34.8683 25.2508 34.7825 25.2683 34.7208 25.2825C34.6325 25.3025 33.2267 26.2317 30.5025 28.07C30.1033 28.3442 29.7417 28.4775 29.4175 28.4708C29.0608 28.4633 28.3742 28.2692 27.8633 28.1025C27.2375 27.8992 26.7392 27.7908 26.7825 27.4458C26.805 27.2658 27.0525 27.0817 27.5258 26.8933C30.4408 25.6233 32.385 24.7858 33.3575 24.3808C36.135 23.2258 36.7117 23.025 37.0883 23.0183C37.56 23.0117 37.6733 23.4008 37.635 23.8008Z" fill="white"/>
</g>
</g>
<defs>
<filter id="filter0_d_1_7141" x="0.666667" y="0.666667" width="58.6667" height="58.6667" filterUnits="userSpaceOnUse" color-interpolation-filters="sRGB">
<feFlood flood-opacity="0" result="BackgroundImageFix"/>
<feColorMatrix in="SourceAlpha" type="matrix" values="0 0 0 0 0 0 0 0 0 0 0 0 0 0 0 0 0 0 127 0" result="hardAlpha"/>
<feOffset dx="-3" dy="3"/>
<feGaussianBlur stdDeviation="6.66667"/>
<feComposite in2="hardAlpha" operator="out"/>
<feColorMatrix type="matrix" values="0 0 0 0 0.0352941 0 0 0 0 0.403922 0 0 0 0 0.223529 0 0 0 0.12 0"/>
<feBlend mode="normal" in2="BackgroundImageFix" result="effect1_dropShadow_1_7141"/>
<feBlend mode="normal" in="SourceGraphic" in2="effect1_dropShadow_1_7141" result="shape"/>
</filter>
<clipPath id="clip0_1_7141">
<rect width="20" height="20" fill="white" transform="translate(23 17)"/>
</clipPath>
</defs>
</svg>
