<svg width="24" height="24" viewBox="0 0 24 24" fill="none" xmlns="http://www.w3.org/2000/svg">
<rect width="24" height="24" rx="12" fill="white"/>
<g clip-path="url(#clip0_49_327)">
<path fill-rule="evenodd" clip-rule="evenodd" d="M12 4C7.582 4 4 7.582 4 12C4 16.418 7.582 20 12 20C16.418 20 20 16.418 20 12C20 7.582 16.418 4 12 4ZM15.708 9.44067C15.588 10.7053 15.0667 13.7753 14.802 15.192C14.69 15.792 14.4687 15.9927 14.2553 16.012C13.7907 16.0547 13.438 15.7047 12.988 15.41C12.284 14.9487 11.886 14.6613 11.2027 14.2107C10.4127 13.69 10.9247 13.404 11.3747 12.9367C11.4927 12.814 13.5393 10.952 13.5793 10.7833C13.584 10.762 13.5893 10.6833 13.542 10.642C13.4947 10.6007 13.426 10.6147 13.3767 10.626C13.306 10.642 12.1813 11.3853 10.002 12.856C9.68267 13.0753 9.39333 13.182 9.134 13.1767C8.84867 13.1707 8.29933 13.0153 7.89067 12.882C7.39 12.7193 6.99133 12.6327 7.026 12.3567C7.044 12.2127 7.242 12.0653 7.62067 11.9147C9.95267 10.8987 11.508 10.2287 12.286 9.90467C14.508 8.98067 14.9693 8.82 15.2707 8.81467C15.648 8.80933 15.7387 9.12067 15.708 9.44067Z" fill="#406760"/>
</g>
<defs>
<clipPath id="clip0_49_327">
<rect width="16" height="16" fill="white" transform="translate(4 4)"/>
</clipPath>
</defs>
</svg>
