<svg width="24" height="24" viewBox="0 0 24 24" fill="none" xmlns="http://www.w3.org/2000/svg">
<rect width="24" height="24" rx="12" fill="white"/>
<path d="M18.9764 10.5773C17.5504 10.5773 16.2284 10.1213 15.1497 9.34667V14.9367C15.1497 17.7287 12.8784 19.9993 10.0871 19.9993C9.00841 19.9993 8.00775 19.6593 7.18575 19.082C5.88041 18.1653 5.02441 16.6493 5.02441 14.9367C5.02441 12.1447 7.29575 9.87333 10.0877 9.87333C10.3197 9.87333 10.5464 9.89267 10.7697 9.92267V10.574V12.7307C10.5537 12.6633 10.3257 12.624 10.0877 12.624C8.81308 12.624 7.77575 13.6613 7.77575 14.9367C7.77575 15.8247 8.27975 16.596 9.01575 16.9833C9.33641 17.152 9.70108 17.2487 10.0884 17.2487C11.3337 17.2487 12.3497 16.258 12.3964 15.0233L12.3984 4H15.1491C15.1491 4.23867 15.1724 4.47133 15.2137 4.698C15.4077 5.746 16.0297 6.64533 16.8917 7.20733C17.4917 7.59867 18.2077 7.82733 18.9757 7.82733L18.9764 10.5773Z" fill="#406760"/>
</svg>
