<svg width="24" height="24" viewBox="0 0 24 24" fill="none" xmlns="http://www.w3.org/2000/svg">
<rect width="24" height="24" rx="12" fill="white"/>
<g clip-path="url(#clip0_49_343)">
<path d="M12.002 4H11.998C7.58701 4 4.00001 7.588 4.00001 12C3.99727 13.685 4.53066 15.3272 5.52301 16.689L4.52601 19.661L7.60101 18.678C8.90538 19.5434 10.4367 20.0034 12.002 20C16.413 20 20 16.411 20 12C20 7.589 16.413 4 12.002 4ZM16.657 15.297C16.464 15.842 15.698 16.294 15.087 16.426C14.669 16.515 14.123 16.586 12.285 15.824C9.93401 14.85 8.42001 12.461 8.30201 12.306C8.18901 12.151 7.35201 11.041 7.35201 9.893C7.35201 8.745 7.93501 8.186 8.17001 7.946C8.36301 7.749 8.68201 7.659 8.98801 7.659C9.08701 7.659 9.17601 7.664 9.25601 7.668C9.49101 7.678 9.60901 7.692 9.76401 8.063C9.95701 8.528 10.427 9.676 10.483 9.794C10.54 9.912 10.597 10.072 10.517 10.227C10.442 10.387 10.376 10.458 10.258 10.594C10.14 10.73 10.028 10.834 9.91001 10.98C9.80201 11.107 9.68001 11.243 9.81601 11.478C9.95201 11.708 10.422 12.475 11.114 13.091C12.007 13.886 12.731 14.14 12.99 14.248C13.183 14.328 13.413 14.309 13.554 14.159C13.733 13.966 13.954 13.646 14.179 13.331C14.339 13.105 14.541 13.077 14.753 13.157C14.969 13.232 16.112 13.797 16.347 13.914C16.582 14.032 16.737 14.088 16.794 14.187C16.85 14.286 16.85 14.751 16.657 15.297Z" fill="#406760"/>
</g>
<defs>
<clipPath id="clip0_49_343">
<rect width="16" height="16" fill="white" transform="translate(4 4)"/>
</clipPath>
</defs>
</svg>
