<svg width="60" height="60" viewBox="0 0 60 60" fill="none" xmlns="http://www.w3.org/2000/svg">
<g filter="url(#filter0_d_1_7153)">
<rect width="32" height="32" rx="16" transform="matrix(-1 0 0 1 49 11)" fill="#47A896"/>
<g clip-path="url(#clip0_1_7153)">
<path d="M33.1685 16.832H33.1635C27.6498 16.832 23.166 21.317 23.166 26.832C23.1626 28.9383 23.8293 30.991 25.0698 32.6933L23.8235 36.4083L27.6673 35.1795C29.2977 36.2612 31.2119 36.8362 33.1685 36.832C38.6823 36.832 43.166 32.3458 43.166 26.832C43.166 21.3183 38.6823 16.832 33.1685 16.832ZM38.9873 30.9533C38.746 31.6345 37.7885 32.1995 37.0248 32.3645C36.5023 32.4758 35.8198 32.5645 33.5223 31.612C30.5835 30.3945 28.691 27.4083 28.5435 27.2145C28.4023 27.0208 27.356 25.6333 27.356 24.1983C27.356 22.7633 28.0848 22.0645 28.3785 21.7645C28.6198 21.5183 29.0185 21.4058 29.401 21.4058C29.5248 21.4058 29.636 21.412 29.736 21.417C30.0298 21.4295 30.1773 21.447 30.371 21.9108C30.6123 22.492 31.1998 23.927 31.2698 24.0745C31.341 24.222 31.4123 24.422 31.3123 24.6158C31.2185 24.8158 31.136 24.9045 30.9885 25.0745C30.841 25.2445 30.701 25.3745 30.5535 25.557C30.4185 25.7158 30.266 25.8858 30.436 26.1795C30.606 26.467 31.1935 27.4258 32.0585 28.1958C33.1748 29.1895 34.0798 29.507 34.4035 29.642C34.6448 29.742 34.9323 29.7183 35.1085 29.5308C35.3323 29.2895 35.6085 28.8895 35.8898 28.4958C36.0898 28.2133 36.3423 28.1783 36.6073 28.2783C36.8773 28.372 38.306 29.0783 38.5998 29.2245C38.8935 29.372 39.0873 29.442 39.1585 29.5658C39.2285 29.6895 39.2285 30.2708 38.9873 30.9533Z" fill="white"/>
</g>
</g>
<defs>
<filter id="filter0_d_1_7153" x="0.666667" y="0.666667" width="58.6667" height="58.6667" filterUnits="userSpaceOnUse" color-interpolation-filters="sRGB">
<feFlood flood-opacity="0" result="BackgroundImageFix"/>
<feColorMatrix in="SourceAlpha" type="matrix" values="0 0 0 0 0 0 0 0 0 0 0 0 0 0 0 0 0 0 127 0" result="hardAlpha"/>
<feOffset dx="-3" dy="3"/>
<feGaussianBlur stdDeviation="6.66667"/>
<feComposite in2="hardAlpha" operator="out"/>
<feColorMatrix type="matrix" values="0 0 0 0 0.0352941 0 0 0 0 0.403922 0 0 0 0 0.223529 0 0 0 0.12 0"/>
<feBlend mode="normal" in2="BackgroundImageFix" result="effect1_dropShadow_1_7153"/>
<feBlend mode="normal" in="SourceGraphic" in2="effect1_dropShadow_1_7153" result="shape"/>
</filter>
<clipPath id="clip0_1_7153">
<rect width="20" height="20" fill="white" transform="translate(23.166 16.832)"/>
</clipPath>
</defs>
</svg>
